<?xml version="1.0" standalone="no"?>
<!DOCTYPE svg PUBLIC "-//W3C//DTD SVG 20010904//EN"
 "http://www.w3.org/TR/2001/REC-SVG-20010904/DTD/svg10.dtd">
<svg version="1.0" xmlns="http://www.w3.org/2000/svg"
 width="16.000000pt" height="16.000000pt" viewBox="0 0 16.000000 16.000000"
 preserveAspectRatio="xMidYMid meet">
<metadata>
Created by potrace 1.11, written by Peter Selinger 2001-2013
</metadata>
<g transform="translate(0.000000,16.000000) scale(0.008333,-0.008333)"
fill="#000000" stroke="none">
<path d="M802 1490 c-206 -54 -357 -200 -407 -395 -31 -121 -13 -270 46 -387
42 -82 145 -186 228 -227 243 -123 541 -83 722 98 167 167 206 408 102 629
-36 77 -149 189 -232 231 -138 70 -312 89 -459 51z m280 -215 c113 -80 120
-257 13 -342 l-35 -28 0 -132 c0 -122 -2 -134 -23 -158 -14 -17 -36 -28 -63
-32 -36 -5 -46 -1 -75 25 l-34 30 -3 137 -4 137 -35 31 c-115 101 -88 282 52
349 61 29 152 21 207 -17z"/>
</g>
</svg>
