<?xml version="1.0" standalone="no"?>
<!DOCTYPE svg PUBLIC "-//W3C//DTD SVG 20010904//EN"
 "http://www.w3.org/TR/2001/REC-SVG-20010904/DTD/svg10.dtd">
<svg version="1.0" xmlns="http://www.w3.org/2000/svg"
 width="16.000000pt" height="16.000000pt" viewBox="0 0 16.000000 16.000000"
 preserveAspectRatio="xMidYMid meet">
<metadata>
Created by potrace 1.11, written by Peter Selinger 2001-2013
</metadata>
<g transform="translate(0.000000,16.000000) scale(0.008000,-0.008000)"
fill="#000000" stroke="none">
<path d="M840 1825 c-219 -37 -374 -117 -516 -266 -148 -156 -224 -350 -224
-574 0 -252 103 -473 298 -641 113 -98 274 -171 448 -203 145 -27 389 -3 509
49 11 5 43 19 70 31 121 52 268 175 344 288 50 74 68 110 104 206 26 72 30 96
34 230 3 86 1 171 -5 200 -16 78 -31 134 -41 153 -5 9 -23 45 -40 80 -18 35
-36 69 -41 75 -143 178 -230 245 -425 328 -119 50 -357 71 -515 44z m258 -320
c141 -49 222 -163 222 -312 0 -114 -49 -205 -142 -266 l-28 -17 0 -196 c0
-241 -9 -265 -109 -301 -46 -17 -100 -1 -143 44 l-33 34 -5 209 -5 208 -48 43
c-55 48 -90 98 -112 161 -51 147 40 327 198 389 53 21 149 23 205 4z"/>
</g>
</svg>
